<svg width="152" height="152" viewBox="0 0 152 152" fill="none" xmlns="http://www.w3.org/2000/svg">
<path d="M48.8686 146.211L55.9309 127.575C29.496 124.922 8.82746 102.663 8.82746 75.6149C8.82746 55.8791 19.7772 38.7317 35.9103 29.8668L26.062 18.543C16.6025 26.7608 9.281 37.2434 4.87517 48.9554C0.274974 61.1851 -1.27998 74.709 1.1173 88.5564C3.57938 102.663 9.79935 115.216 18.611 125.245C26.7747 134.628 37.2061 141.811 48.8038 146.275" fill="#91A8D2"/>
<path d="M106.533 49.473L133.422 26.696C125.258 17.1193 114.827 9.67795 103.099 5.14843C90.7241 0.295378 76.8587 -1.32231 62.799 1.13658C48.6744 3.59546 36.2344 9.74266 26.127 18.4782L35.9753 29.8019C43.4263 25.6607 52.0436 23.3312 61.1792 23.3312C80.5519 23.3312 97.4624 33.8138 106.468 49.473" fill="#FDBF4E"/>
<path d="M55.9334 127.511L48.8711 146.146C61.1167 150.805 74.7877 152.358 88.6531 149.964C102.518 147.57 114.829 141.552 124.807 133.075C134.266 124.987 141.653 114.634 146.188 103.051L111.589 89.5273C105.434 111.593 85.2192 127.769 61.1815 127.769C59.4321 127.769 57.6828 127.705 55.9334 127.511Z" fill="#373B7B"/>
<path d="M133.422 26.6953L106.533 49.4723C111.004 57.1725 113.531 66.0374 113.531 75.5494C113.531 80.4025 112.883 85.0614 111.652 89.5262L146.25 103.05C151.11 90.6262 152.794 76.7788 150.332 62.6726C147.935 48.8899 141.974 36.6603 133.486 26.6953" fill="#FA7935"/>
<path fill-rule="evenodd" clip-rule="evenodd" d="M58.5872 76.7137L26.1267 56.0073C24.5069 54.972 21.8504 54.0014 20.8786 56.2014C19.9715 58.2721 21.7209 60.0839 22.628 61.378L44.2683 93.667C62.7987 121.038 56.7731 118.773 72.1934 101.82C76.0809 97.5495 82.6249 89.3963 86.3828 85.5139L137.892 26.1772C140.548 23.0712 147.352 16.924 142.557 15.2416C140.419 14.5299 138.475 16.5358 137.309 17.4417L111.068 37.3069C105.172 41.5128 99.665 46.1071 93.7042 50.4425C91.1126 52.319 60.1422 76.1313 58.652 76.7137" fill="#373B7B"/>
</svg>
