<svg width="609" height="147" viewBox="0 0 609 147" fill="none" xmlns="http://www.w3.org/2000/svg">
<path d="M448.374 109.818H462.948V143.071H436.674C412.247 143.071 397.263 128.087 397.263 103.455V61.7854H376.941V52.7537L426.616 0H434.622V32.227H462.333V61.7854H435.443V97.0914C435.443 104.892 440.369 109.818 448.374 109.818Z" fill="#373B7B"/>
<path d="M335.605 32.2276H364.137V143.072H334.579L331.294 135.272C322.263 142.661 310.768 146.767 297.836 146.767C263.967 146.767 239.745 122.135 239.745 87.6498C239.745 53.3702 263.967 28.9434 297.836 28.9434C310.973 28.9434 322.673 33.254 331.705 40.8489L335.605 32.2276ZM302.967 113.103C317.336 113.103 327.805 102.224 327.805 87.6498C327.805 73.2811 317.336 62.6072 302.967 62.6072C288.599 62.6072 278.13 73.2811 278.13 87.6498C278.13 102.224 288.599 113.103 302.967 113.103Z" fill="#373B7B"/>
<path d="M240.831 143.069H198.135L179.867 110.431L161.392 143.069H119.107L155.85 85.5941L121.776 32.2246H164.061L180.072 60.141L196.698 32.2246H238.368L203.883 84.5678L240.831 143.069Z" fill="#373B7B"/>
<path d="M120.492 86.6217C120.492 90.1112 120.287 93.3955 119.876 96.885H37.5639C40.0271 109.612 48.0325 116.18 60.1433 116.18C68.9698 116.18 76.5647 112.28 80.0542 105.712H118.234C110.434 130.959 87.8544 146.765 60.1433 146.765C25.4531 146.765 0 121.517 0 87.648C0 53.7789 25.2479 28.7363 60.1433 28.7363C95.8598 28.7363 120.492 54.1895 120.492 86.6217ZM60.1433 58.7053C49.0589 58.7053 41.2587 64.6581 38.1797 75.7425H82.928C79.6437 64.6581 71.6383 58.7053 60.1433 58.7053Z" fill="#373B7B"/>
<path d="M519.034 142.734L525.22 126.409C502.063 124.085 483.957 104.586 483.957 80.8917C483.957 63.6031 493.55 48.5819 507.682 40.8162L499.055 30.8965C490.768 38.0953 484.355 47.2781 480.495 57.5379C476.465 68.2512 475.103 80.0981 477.203 92.2285C479.36 104.586 484.809 115.582 492.528 124.368C499.679 132.587 508.817 138.879 518.977 142.791" fill="#91A8D2"/>
<path d="M569.55 57.9909L593.104 38.0381C585.952 29.6489 576.815 23.1303 566.541 19.1624C555.701 14.9111 543.555 13.494 531.238 15.648C518.865 17.802 507.967 23.1869 499.113 30.8393L507.74 40.759C514.268 37.1312 521.816 35.0906 529.819 35.0906C546.79 35.0906 561.603 44.2734 569.493 57.9909" fill="#FDBF4E"/>
<path d="M525.224 126.355L519.037 142.68C529.764 146.762 541.74 148.122 553.886 146.025C566.032 143.928 576.816 138.656 585.557 131.23C593.844 124.145 600.314 115.075 604.287 104.929L573.979 93.082C568.587 112.411 550.878 126.582 529.821 126.582C528.289 126.582 526.756 126.526 525.224 126.355Z" fill="#373B7B"/>
<path d="M593.105 38.0371L569.551 57.9899C573.467 64.7352 575.681 72.5009 575.681 80.8335C575.681 85.0848 575.113 89.166 574.035 93.0772L604.343 104.924C608.6 94.0408 610.076 81.9105 607.919 69.5534C605.819 57.4797 600.597 46.7664 593.162 38.0371" fill="#FA7935"/>
<path fill-rule="evenodd" clip-rule="evenodd" d="M527.55 81.856L499.114 63.7172C497.695 62.8102 495.368 61.9599 494.517 63.8872C493.722 65.7011 495.255 67.2882 496.05 68.4219L515.007 96.7072C531.239 120.685 525.961 118.701 539.469 103.849C542.875 100.108 548.607 92.9661 551.899 89.565L597.021 37.5859C599.348 34.865 605.308 29.4801 601.108 28.0063C599.235 27.3827 597.532 29.1399 596.511 29.9335L573.524 47.3355C568.359 51.0199 563.534 55.0445 558.313 58.8423C556.042 60.4862 528.912 81.3459 527.607 81.856" fill="#373B7B"/>
</svg>
